<svg width="169" height="44" viewBox="0 0 169 44" fill="none" xmlns="http://www.w3.org/2000/svg">
<path d="M37.5092 3.60042C35.1858 2.07111 32.5609 0.966989 29.7373 0.411499L31.574 8.61355C31.7865 8.70956 31.9921 8.81242 32.1909 8.91528L37.5092 3.59356V3.60042Z" fill="#1C85C8"/>
<path d="M38.2284 4.10098C37.9885 3.92953 37.7486 3.76493 37.5087 3.60034L32.1904 8.92207C32.7456 9.21011 33.2801 9.53243 33.7873 9.88904L40.0651 11.4595L38.2284 4.10098Z" fill="#225CA8"/>
<path d="M38.2285 4.10107L40.0653 11.4596L42.4091 8.02379C41.1961 6.54249 39.7843 5.22577 38.2285 4.10107Z" fill="#5DC5EA"/>
<path d="M28.6406 43.5134C28.6406 43.5134 28.6817 43.5134 28.7023 43.5066L31.6973 35.0713C30.9434 35.4279 30.1484 35.716 29.3328 35.9423L28.6475 43.5134H28.6406ZM40.0654 11.4596L33.7876 9.88916C35.8436 11.3156 37.5159 13.2632 38.6193 15.5332L40.0654 11.4596Z" fill="#5DC5EA"/>
<path d="M42.4162 8.0238L40.0723 11.4596L46.6379 16.3081C45.8292 13.2289 44.3694 10.4172 42.4162 8.03066V8.0238Z" fill="#183B6A"/>
<path d="M40.0654 11.4526L46.5214 27.8361C47.056 25.9365 47.3507 23.934 47.3507 21.8698C47.3507 19.8055 47.0834 17.9951 46.5968 16.1846L40.0654 11.4595V11.4526Z" fill="#1C85C8"/>
<path d="M46.5212 27.8361L40.0653 11.4526L38.6192 15.5262C39.5444 17.4396 40.0653 19.593 40.0653 21.8629C40.0653 27.699 36.6385 32.7258 31.6903 35.0575L28.6953 43.4927C37.2553 42.2309 44.1979 36.0039 46.5144 27.8293L46.5212 27.8361Z" fill="#183B6A"/>
<path d="M28.4349 43.534C28.5034 43.5271 28.5719 43.5203 28.6405 43.5065L29.3258 35.9354C28.1059 36.2646 26.8243 36.4498 25.4947 36.4498H21.835L28.428 43.5408L28.4349 43.534Z" fill="#1C85C8"/>
<path d="M25.4953 43.7397C26.4891 43.7397 27.4692 43.6642 28.4286 43.5408L21.8424 36.4497H19.3066L20.6499 43.7397H25.4953Z" fill="#611A26"/>
<path d="M6.64062 43.7397H20.6492L19.3127 36.4497H14.8443L6.64062 43.7397Z" fill="#B41922"/>
<path d="M14.8515 32.8013L6.28465 32.2595C6.3806 32.4378 6.4697 32.623 6.5725 32.8013H14.8515ZM14.8926 36.4428H0V43.7328H6.73013L14.8926 36.4428Z" fill="#E63026"/>
<path d="M11.1922 24.6268L4.2359 16.795C3.85211 18.4204 3.63965 20.1211 3.63965 21.8699C3.63965 25.8543 4.70879 29.585 6.57294 32.8014H15.8663C13.495 30.7097 11.8159 27.8568 11.1922 24.6199V24.6268Z" fill="#E63026"/>
<path d="M3.67383 22.7407C3.73551 24.2906 3.95482 25.7993 4.32491 27.2464L14.4407 31.3474C13.8238 30.6273 13.2824 29.8524 12.8095 29.0226L3.67383 22.7407Z" fill="#B41922"/>
<path d="M5.31133 13.4827C4.87271 14.5456 4.51633 15.6429 4.24219 16.7813L11.1916 24.613C11.0203 23.7215 10.9312 22.8094 10.9312 21.8699C10.9312 18.6809 11.9592 15.7321 13.6932 13.3318L5.31819 13.4758L5.31133 13.4827Z" fill="#961914"/>
<path d="M14.9478 11.823L11.7678 4.85535C9.95844 6.32294 8.38214 8.0717 7.12109 10.0399L14.1391 12.7419C14.3927 12.4265 14.6668 12.1179 14.9478 11.823Z" fill="#B41922"/>
<path d="M7.12092 10.0399C6.40815 11.144 5.79134 12.3167 5.28418 13.5443L13.6729 13.3523C13.8236 13.1465 13.9813 12.9408 14.1389 12.7419L7.11406 10.0468L7.12092 10.0399Z" fill="#611A26"/>
<path d="M24.5151 0.027484C19.6834 0.240079 15.2698 2.02313 11.7471 4.87601L14.9339 11.8299C15.9551 10.7601 17.1339 9.84113 18.4361 9.11419L24.5151 0.0206299V0.027484Z" fill="#961914"/>
<path d="M29.737 0.411478C28.3663 0.14402 26.9476 0 25.5015 0C25.1726 0 24.8436 0.0137216 24.5146 0.0274374L18.4219 9.12787C20.519 7.96202 22.9315 7.28995 25.5015 7.28995C27.6672 7.28995 29.7301 7.77 31.5737 8.62038L29.737 0.418332V0.411478Z" fill="#453153"/>
<path d="M63.1691 36.3811V31.6012H62.751V33.734H59.7218V31.6012H59.3105V36.3811H59.7218V34.1112H62.751V36.3811H63.1691ZM65.8214 36.4703C66.8425 36.4703 67.4868 35.661 67.4868 34.6529C67.4868 33.6448 66.8425 32.8424 65.8214 32.8424C64.8002 32.8424 64.1628 33.6448 64.1628 34.6529C64.1628 35.661 64.8139 36.4703 65.8214 36.4703ZM65.8214 36.1342C65.0195 36.1342 64.5603 35.4279 64.5603 34.6529C64.5603 33.878 65.0195 33.1785 65.8214 33.1785C66.6232 33.1785 67.0893 33.8849 67.0893 34.6529C67.0893 35.421 66.6369 36.1342 65.8214 36.1342ZM68.2269 34.6529C68.2269 35.661 68.8917 36.4703 69.9129 36.4703C70.516 36.4703 70.8587 36.2371 71.1397 35.8736L70.8792 35.6473C70.6257 35.9902 70.3104 36.1342 69.9335 36.1342C69.1247 36.1342 68.6313 35.4827 68.6313 34.6529C68.6313 33.8231 69.1247 33.1785 69.9335 33.1785C70.3104 33.1785 70.6257 33.3156 70.8792 33.6585L71.1397 33.4322C70.8587 33.0825 70.516 32.8424 69.9129 32.8424C68.8986 32.8424 68.2269 33.6448 68.2269 34.6529ZM74.6144 36.388V33.9534C74.6144 33.1716 74.2306 32.8424 73.5247 32.8424C73.0244 32.8424 72.5309 33.1511 72.2774 33.4528V31.6149H71.9073V36.3948H72.2774V33.782C72.4967 33.4665 72.9559 33.1853 73.4013 33.1853C73.9016 33.1853 74.2375 33.3705 74.2375 34.0357V36.3948H74.6075L74.6144 36.388ZM75.4368 35.9285C75.7795 36.3057 76.2113 36.4703 76.7664 36.4703C77.6299 36.4703 78.0617 36.0108 78.0617 35.4553C78.0617 34.7147 77.3969 34.5501 76.8007 34.3992C76.3209 34.2757 75.8754 34.1729 75.8754 33.7751C75.8754 33.4185 76.2044 33.1511 76.739 33.1511C77.1982 33.1511 77.5682 33.3362 77.7739 33.6105L77.9795 33.3431C77.7259 33.0619 77.3352 32.8356 76.739 32.8356C75.9577 32.8356 75.5053 33.2676 75.5053 33.7957C75.5053 34.4678 76.1427 34.6186 76.7253 34.7627C77.2187 34.893 77.6916 35.0233 77.6916 35.4622C77.6916 35.8599 77.3489 36.148 76.7664 36.148C76.2798 36.148 75.8686 35.9216 75.6493 35.6405L75.43 35.9216L75.4368 35.9285ZM78.7676 34.6529C78.7676 35.661 79.4324 36.4703 80.4467 36.4703C81.0498 36.4703 81.3925 36.2371 81.6735 35.8736L81.4131 35.6473C81.1595 35.9902 80.8511 36.1342 80.4673 36.1342C79.6586 36.1342 79.1651 35.4827 79.1651 34.6529C79.1651 33.8231 79.6586 33.1785 80.4673 33.1785C80.8442 33.1785 81.1595 33.3156 81.4131 33.6585L81.6735 33.4322C81.3925 33.0825 81.0498 32.8424 80.4467 32.8424C79.4324 32.8424 78.7676 33.6448 78.7676 34.6529ZM85.1551 36.388V33.9534C85.1551 33.1716 84.7713 32.8424 84.0654 32.8424C83.5651 32.8424 83.0716 33.1511 82.818 33.4528V31.6149H82.4479V36.3948H82.818V33.782C83.0373 33.4665 83.4965 33.1853 83.942 33.1853C84.4423 33.1853 84.7781 33.3705 84.7781 34.0357V36.3948H85.1482L85.1551 36.388ZM88.9588 36.388V32.9247H88.5887V35.5582C88.3625 35.8668 87.9102 36.1342 87.4647 36.1342C86.9644 36.1342 86.6286 35.9491 86.6286 35.277V32.9247H86.2585V35.3593C86.2585 36.1411 86.6354 36.4703 87.3482 36.4703C87.8485 36.4703 88.3077 36.1891 88.5955 35.8736V36.3811H88.9656L88.9588 36.388ZM90.446 36.388V31.608H90.0759V36.388H90.446ZM91.3643 34.6529C91.3643 35.7228 92.0908 36.4703 93.0983 36.4703C93.674 36.4703 94.1057 36.2714 94.4484 35.9148L94.2565 35.6679C93.9618 35.9834 93.5643 36.148 93.1257 36.148C92.3101 36.148 91.8098 35.5239 91.7755 34.7695H94.6677V34.6666C94.6677 33.6723 94.0852 32.8356 93.0366 32.8356C92.0771 32.8356 91.3712 33.6448 91.3712 34.6461L91.3643 34.6529ZM93.0229 33.1648C93.8864 33.1648 94.2771 33.8986 94.2839 34.4815H91.7687C91.7961 33.878 92.2073 33.1648 93.0229 33.1648ZM98.6702 33.2608V32.9316H97.9711V32.6161C97.9711 32.1361 98.1767 31.8618 98.5742 31.8618C98.7044 31.8618 98.8004 31.8892 98.8895 31.9372L99.006 31.6423C98.8689 31.5669 98.7113 31.5326 98.5399 31.5326C97.9642 31.5326 97.601 31.9235 97.601 32.6093V32.9247H97.0322V33.2539H97.601V36.388H97.9711V33.2539H98.6702V33.2608ZM99.9997 32.3212C100.144 32.3212 100.267 32.1978 100.267 32.0469C100.267 31.8961 100.144 31.7795 99.9997 31.7795C99.8558 31.7795 99.7324 31.9029 99.7324 32.0469C99.7324 32.1978 99.8558 32.3212 99.9997 32.3212ZM101.46 32.3212C101.603 32.3212 101.734 32.1978 101.734 32.0469C101.734 31.8961 101.603 31.7795 101.46 31.7795C101.316 31.7795 101.192 31.9029 101.192 32.0469C101.192 32.1978 101.316 32.3212 101.46 32.3212ZM102.083 36.388V32.9247H101.713V35.5582C101.48 35.8668 101.035 36.1342 100.589 36.1342C100.089 36.1342 99.753 35.9491 99.753 35.277V32.9247H99.3829V35.3593C99.3829 36.1411 99.7599 36.4703 100.473 36.4703C100.973 36.4703 101.432 36.1891 101.72 35.8736V36.3811H102.09L102.083 36.388ZM103.57 36.388V33.8643C103.728 33.5625 104.201 33.2471 104.55 33.2471C104.619 33.2471 104.674 33.2471 104.735 33.2608V32.8493C104.256 32.8493 103.865 33.1305 103.57 33.5145V32.9179H103.2V36.3811H103.57V36.388ZM111.801 36.388V31.608H111.185L109.567 35.5719L107.943 31.608H107.333V36.388H107.744V32.1498L109.492 36.388H109.649L111.39 32.1498V36.388H111.808H111.801ZM114.461 36.4771C115.482 36.4771 116.126 35.6679 116.126 34.6598C116.126 33.6517 115.482 32.8493 114.461 32.8493C113.439 32.8493 112.802 33.6517 112.802 34.6598C112.802 35.6679 113.453 36.4771 114.461 36.4771ZM114.461 36.1411C113.659 36.1411 113.2 35.4347 113.2 34.6598C113.2 33.8848 113.659 33.1853 114.461 33.1853C115.262 33.1853 115.728 33.8917 115.728 34.6598C115.728 35.4279 115.276 36.1411 114.461 36.1411ZM117.421 36.3948V35.8462C117.661 36.2028 118.107 36.484 118.628 36.484C119.546 36.484 120.176 35.7845 120.176 34.6735C120.176 33.5625 119.553 32.8562 118.628 32.8562C118.141 32.8562 117.702 33.1099 117.421 33.5008V31.6217H117.051V36.4017H117.421V36.3948ZM117.421 33.8163C117.62 33.4871 118.079 33.1853 118.559 33.1853C119.333 33.1853 119.765 33.83 119.765 34.6666C119.765 35.5033 119.327 36.1411 118.559 36.1411C118.079 36.1411 117.62 35.8531 117.421 35.5239V33.8094V33.8163ZM121.28 32.3487C121.437 32.3487 121.568 32.2184 121.568 32.0606C121.568 31.9029 121.437 31.7726 121.28 31.7726C121.122 31.7726 120.992 31.9029 120.992 32.0606C120.992 32.2184 121.129 32.3487 121.28 32.3487ZM121.465 36.3948V32.9316H121.095V36.3948H121.465ZM122.945 36.3948V31.6149H122.575V36.3948H122.945ZM124.241 32.3487C124.398 32.3487 124.528 32.2184 124.528 32.0606C124.528 31.9029 124.398 31.7726 124.241 31.7726C124.083 31.7726 123.953 31.9029 123.953 32.0606C123.953 32.2184 124.09 32.3487 124.241 32.3487ZM124.426 36.3948V32.9316H124.055V36.3948H124.426ZM126.358 36.484C126.646 36.484 126.811 36.3948 126.948 36.2714L126.804 35.9834C126.728 36.0725 126.584 36.148 126.42 36.148C126.18 36.148 126.064 35.9559 126.064 35.6748V33.2676H126.763V32.9385H126.064V31.9921H125.687V32.9385H125.118V33.2676H125.687V35.7296C125.687 36.2028 125.906 36.484 126.365 36.484H126.358ZM128.161 32.3281C128.305 32.3281 128.428 32.2047 128.428 32.0538C128.428 31.9029 128.305 31.7863 128.161 31.7863C128.017 31.7863 127.893 31.9098 127.893 32.0538C127.893 32.2047 128.017 32.3281 128.161 32.3281ZM129.621 32.3281C129.764 32.3281 129.895 32.2047 129.895 32.0538C129.895 31.9029 129.764 31.7863 129.621 31.7863C129.477 31.7863 129.353 31.9098 129.353 32.0538C129.353 32.2047 129.477 32.3281 129.621 32.3281ZM130.148 36.3948V33.9603C130.148 33.1853 129.586 32.8493 128.887 32.8493C128.312 32.8493 127.914 33.0413 127.558 33.4322L127.763 33.6928C128.078 33.3362 128.414 33.1853 128.846 33.1853C129.36 33.1853 129.778 33.4665 129.778 33.9809V34.6804C129.477 34.3443 129.086 34.1866 128.606 34.1866C128.003 34.1866 127.4 34.5775 127.4 35.3319C127.4 36.0862 128.017 36.484 128.606 36.484C129.086 36.484 129.47 36.3263 129.778 35.9902V36.4017H130.148V36.3948ZM129.778 35.7159C129.531 36.0314 129.148 36.1891 128.73 36.1891C128.154 36.1891 127.784 35.8256 127.784 35.3387C127.784 34.8518 128.154 34.4815 128.73 34.4815C129.141 34.4815 129.531 34.6461 129.778 34.9615V35.7228V35.7159ZM132.006 36.484C132.293 36.484 132.458 36.3948 132.595 36.2714L132.451 35.9834C132.369 36.0725 132.232 36.148 132.067 36.148C131.82 36.148 131.711 35.9559 131.711 35.6748V33.2676H132.41V32.9385H131.711V31.9921H131.334V32.9385H130.758V33.2676H131.334V35.7296C131.334 36.2028 131.553 36.484 132.012 36.484H132.006Z" fill="#1D1D1B"/>
<path d="M65.8488 27.075V19.2365H64.8756V22.6105H60.2906V19.2365H59.3174V27.075H60.2906V23.4746H64.8756V27.075H65.8488ZM70.1116 27.219C71.8387 27.219 72.9216 25.8818 72.9216 24.2359C72.9216 22.59 71.8387 21.2595 70.1116 21.2595C68.3846 21.2595 67.3017 22.59 67.3017 24.2359C67.3017 25.8818 68.3846 27.219 70.1116 27.219ZM70.1116 26.4304C68.8986 26.4304 68.2201 25.3948 68.2201 24.229C68.2201 23.0632 68.8986 22.0413 70.1116 22.0413C71.3247 22.0413 71.9895 23.0769 71.9895 24.229C71.9895 25.3811 71.3178 26.4304 70.1116 26.4304ZM73.9496 24.229C73.9496 25.9229 75.0873 27.2122 76.7801 27.2122C77.815 27.2122 78.4249 26.787 78.8567 26.2246L78.2673 25.6829C77.8903 26.1904 77.4106 26.4235 76.8212 26.4235C75.6081 26.4235 74.8611 25.484 74.8611 24.2221C74.8611 22.9603 75.615 22.0345 76.8212 22.0345C77.4106 22.0345 77.8903 22.2608 78.2673 22.7751L78.8567 22.2334C78.4249 21.671 77.8081 21.2458 76.7801 21.2458C75.0873 21.2458 73.9496 22.542 73.9496 24.2221V24.229ZM84.7027 27.075V23.0632C84.7027 21.8287 84.079 21.2527 82.8934 21.2527C82.0367 21.2527 81.2623 21.7464 80.8579 22.2196V19.2365H79.9738V27.075H80.8579V22.926C81.2006 22.4665 81.8585 22.0413 82.537 22.0413C83.2977 22.0413 83.8186 22.3362 83.8186 23.3375V27.075H84.7027ZM85.8884 26.3207C86.4641 26.931 87.2522 27.2122 88.1774 27.2122C89.6441 27.2122 90.4117 26.451 90.4117 25.4977C90.4117 24.2427 89.274 23.9547 88.2871 23.7352C87.5469 23.5569 86.9027 23.3855 86.9027 22.83C86.9027 22.3225 87.3824 21.9728 88.1569 21.9728C88.8834 21.9728 89.507 22.2814 89.8497 22.6928L90.2609 22.0825C89.8017 21.623 89.1232 21.2595 88.1569 21.2595C86.8067 21.2595 86.0391 22.0139 86.0391 22.8917C86.0391 24.0644 87.1288 24.325 88.0952 24.5513C88.8559 24.7365 89.555 24.9422 89.555 25.5594C89.555 26.1149 89.0821 26.499 88.2186 26.499C87.4441 26.499 86.7245 26.1218 86.3476 25.6897L85.8884 26.3275V26.3207ZM91.3917 24.229C91.3917 25.9229 92.5294 27.2122 94.2222 27.2122C95.2571 27.2122 95.8671 26.787 96.2988 26.2246L95.7094 25.6829C95.3325 26.1904 94.8527 26.4235 94.2633 26.4235C93.0503 26.4235 92.3032 25.484 92.3032 24.2221C92.3032 22.9603 93.0571 22.0345 94.2633 22.0345C94.8527 22.0345 95.3325 22.2608 95.7094 22.7751L96.2988 22.2334C95.8671 21.671 95.2502 21.2458 94.2222 21.2458C92.5294 21.2458 91.3917 22.542 91.3917 24.2221V24.229ZM102.145 27.075V23.0632C102.145 21.8287 101.521 21.2527 100.336 21.2527C99.4788 21.2527 98.7044 21.7464 98.3069 22.2196V19.2365H97.4228V27.075H98.3069V22.926C98.6496 22.4665 99.3075 22.0413 99.986 22.0413C100.747 22.0413 101.268 22.3362 101.268 23.3375V27.075H102.152H102.145ZM108.498 27.075V21.3967H107.614V25.5731C107.285 26.0326 106.627 26.4304 105.935 26.4304C105.174 26.4304 104.667 26.1355 104.667 25.1342V21.3967H103.783V25.4086C103.783 26.643 104.407 27.219 105.592 27.219C106.435 27.219 107.175 26.7733 107.614 26.2795V27.0819H108.498V27.075ZM111.048 27.075V19.2365H110.163V27.075H111.048ZM112.398 24.229C112.398 26.0052 113.611 27.2122 115.29 27.2122C116.215 27.2122 116.983 26.9036 117.545 26.3412L117.12 25.7652C116.674 26.2246 116.016 26.4852 115.372 26.4852C114.152 26.4852 113.398 25.5937 113.33 24.5239H117.922V24.2976C117.922 22.59 116.907 21.2527 115.194 21.2527C113.57 21.2527 112.398 22.5831 112.398 24.229ZM115.18 21.9865C116.476 21.9865 117.037 23.0357 117.051 23.8792H113.33C113.378 23.0083 113.974 21.9865 115.187 21.9865H115.18ZM127.784 27.075V26.2041H123.295L127.702 20.0457V19.2365H122.047V20.1074H126.454L122.047 26.2658V27.075H127.784ZM134.651 27.075L136.46 21.3967H135.542L134.158 25.9229L132.663 21.3967H131.91L130.416 25.9229L129.031 21.3967H128.113L129.922 27.075H130.806L132.287 22.5145L133.767 27.075H134.651ZM137.893 20.4434C138.222 20.4434 138.489 20.176 138.489 19.8468C138.489 19.5176 138.222 19.257 137.893 19.257C137.564 19.257 137.303 19.5176 137.303 19.8468C137.303 20.176 137.571 20.4434 137.893 20.4434ZM138.338 27.075V21.3967H137.454V27.075H138.338ZM139.647 24.229C139.647 25.9229 140.785 27.2122 142.478 27.2122C143.513 27.2122 144.122 26.787 144.554 26.2246L143.965 25.6829C143.588 26.1904 143.108 26.4235 142.519 26.4235C141.313 26.4235 140.559 25.484 140.559 24.2221C140.559 22.9603 141.313 22.0345 142.519 22.0345C143.108 22.0345 143.588 22.2608 143.965 22.7751L144.554 22.2334C144.122 21.671 143.506 21.2458 142.478 21.2458C140.785 21.2458 139.647 22.542 139.647 24.2221V24.229ZM150.668 27.075L148.139 23.9684L150.654 21.3967H149.537L146.555 24.421V19.2365H145.671V27.075H146.555V25.4497L147.494 24.5239L149.537 27.075H150.668ZM155.917 27.075V23.1729C155.917 21.7944 154.917 21.2595 153.717 21.2595C152.792 21.2595 152.059 21.5681 151.449 22.1991L151.86 22.8094C152.367 22.2676 152.916 22.0208 153.601 22.0208C154.423 22.0208 155.033 22.4528 155.033 23.2209V24.2427C154.574 23.7147 153.93 23.4678 153.155 23.4678C152.189 23.4678 151.168 24.0644 151.168 25.34C151.168 26.6156 152.189 27.219 153.155 27.219C153.916 27.219 154.567 26.9516 155.033 26.4304V27.075H155.917ZM155.033 25.8749C154.691 26.3481 154.094 26.5813 153.471 26.5813C152.648 26.5813 152.073 26.0669 152.073 25.3468C152.073 24.6268 152.648 24.0987 153.471 24.0987C154.094 24.0987 154.691 24.3319 155.033 24.8051V25.8749ZM162.264 27.075V21.3967H161.38V25.5731C161.051 26.0326 160.393 26.4304 159.7 26.4304C158.933 26.4304 158.433 26.1355 158.433 25.1342V21.3967H157.555V25.4086C157.555 26.643 158.179 27.219 159.365 27.219C160.208 27.219 160.948 26.7733 161.386 26.2795V27.0819H162.271L162.264 27.075Z" fill="#1D1D1B"/>
<path d="M66.9242 15.1353L69.1584 7.29675H67.2806L65.9167 12.9614L64.4364 7.29675H63.1342L61.6402 12.9614L60.2626 7.29675H58.3916L60.6327 15.1353H62.4077L63.7716 9.75188L65.1491 15.1353H66.9242ZM76.944 15.1353V7.29675H75.2649V10.376H71.564V7.29675H69.8986V15.1353H71.564V11.8435H75.2649V15.1353H76.944ZM84.1607 15.1353V13.6677H80.3776L84.0785 8.63405V7.29675H78.1913V8.76435H81.8922L78.1913 13.7843V15.1353H84.1607ZM95.5033 15.1353L97.7375 7.29675H96.6546L94.9276 13.8323L93.132 7.29675H92.3232L90.5276 13.8323L88.7868 7.29675H87.704L89.9382 15.1353H90.9937L92.7207 8.81235L94.4478 15.1353H95.5033ZM98.0802 12.2893C98.0802 14.0655 99.2932 15.2725 100.972 15.2725C101.898 15.2725 102.665 14.9639 103.227 14.4015L102.802 13.8255C102.357 14.285 101.699 14.5456 101.055 14.5456C99.8347 14.5456 99.0808 13.654 99.0122 12.5842H103.604V12.3579C103.604 10.6503 102.597 9.31298 100.876 9.31298C99.2521 9.31298 98.0802 10.6434 98.0802 12.2893ZM100.863 10.0468C102.158 10.0468 102.72 11.096 102.734 11.9396H99.0122C99.0602 11.0686 99.6565 10.0468 100.87 10.0468H100.863ZM104.42 14.3878C104.995 14.9982 105.783 15.2794 106.709 15.2794C108.175 15.2794 108.943 14.5181 108.943 13.5649C108.943 12.3099 107.805 12.0218 106.818 11.8024C106.078 11.6241 105.434 11.4526 105.434 10.8971C105.434 10.3897 105.914 10.0399 106.688 10.0399C107.415 10.0399 108.038 10.3485 108.381 10.76L108.792 10.1496C108.333 9.69016 107.654 9.32669 106.688 9.32669C105.338 9.32669 104.57 10.0811 104.57 10.9589C104.57 12.1316 105.667 12.3922 106.626 12.6185C107.394 12.8036 108.086 13.0094 108.086 13.6266C108.086 14.1821 107.613 14.5661 106.75 14.5661C105.975 14.5661 105.256 14.1889 104.879 13.7569L104.42 14.3947V14.3878ZM111.876 15.2794C112.39 15.2794 112.712 15.1285 112.932 14.9159L112.671 14.2575C112.555 14.3878 112.322 14.4907 112.075 14.4907C111.684 14.4907 111.499 14.1821 111.499 13.7638V10.2388H112.651V9.46385H111.499V7.91397H110.615V9.46385H109.676V10.2388H110.615V13.9558C110.615 14.7993 111.04 15.2862 111.869 15.2862L111.876 15.2794ZM113.569 14.3878C114.145 14.9982 114.933 15.2794 115.858 15.2794C117.325 15.2794 118.092 14.5181 118.092 13.5649C118.092 12.3099 116.955 12.0218 115.968 11.8024C115.228 11.6241 114.583 11.4526 114.583 10.8971C114.583 10.3897 115.063 10.0399 115.838 10.0399C116.564 10.0399 117.188 10.3485 117.53 10.76L117.942 10.1496C117.482 9.69016 116.804 9.32669 115.838 9.32669C114.487 9.32669 113.727 10.0811 113.727 10.9589C113.727 12.1316 114.816 12.3922 115.783 12.6185C116.543 12.8036 117.236 13.0094 117.236 13.6266C117.236 14.1821 116.77 14.5661 115.899 14.5661C115.125 14.5661 114.405 14.1889 114.028 13.7569L113.569 14.3947V14.3878ZM120.471 8.48318C120.779 8.48318 121.012 8.23629 121.012 7.92769C121.012 7.61908 120.779 7.38591 120.471 7.38591C120.162 7.38591 119.929 7.6328 119.929 7.92769C119.929 8.22258 120.176 8.48318 120.471 8.48318ZM122.904 8.48318C123.198 8.48318 123.445 8.23629 123.445 7.92769C123.445 7.61908 123.198 7.38591 122.904 7.38591C122.609 7.38591 122.348 7.6328 122.348 7.92769C122.348 8.22258 122.595 8.48318 122.904 8.48318ZM123.87 15.1353V11.2332C123.87 9.85475 122.869 9.31984 121.67 9.31984C120.745 9.31984 120.011 9.62844 119.401 10.2594L119.813 10.8697C120.32 10.3279 120.868 10.0811 121.553 10.0811C122.376 10.0811 122.986 10.5131 122.986 11.2812V12.303C122.527 11.775 121.882 11.5281 121.108 11.5281C120.142 11.5281 119.12 12.1247 119.12 13.4003C119.12 14.6759 120.142 15.2794 121.108 15.2794C121.869 15.2794 122.52 15.0119 122.986 14.4907V15.1353H123.87ZM122.986 13.9352C122.643 14.4084 122.047 14.6416 121.423 14.6416C120.601 14.6416 120.025 14.1272 120.025 13.4071C120.025 12.6871 120.601 12.159 121.423 12.159C122.047 12.159 122.643 12.3922 122.986 12.8654V13.9352ZM125.199 12.2893C125.199 13.9832 126.337 15.2725 128.03 15.2725C129.065 15.2725 129.675 14.8473 130.107 14.2849L129.517 13.7432C129.14 14.2507 128.66 14.4838 128.071 14.4838C126.865 14.4838 126.111 13.5443 126.111 12.2824C126.111 11.0206 126.865 10.0948 128.071 10.0948C128.66 10.0948 129.14 10.3211 129.517 10.8354L130.107 10.2937C129.675 9.73131 129.058 9.30612 128.03 9.30612C126.337 9.30612 125.199 10.6023 125.199 12.2824V12.2893ZM135.953 15.1353V11.1235C135.953 9.88904 135.329 9.31298 134.143 9.31298C133.287 9.31298 132.512 9.80675 132.108 10.2799V7.29675H131.224V15.1353H132.108V10.9863C132.45 10.5268 133.108 10.1016 133.787 10.1016C134.548 10.1016 135.068 10.3965 135.068 11.3978V15.1353H135.953ZM137.138 14.381C137.714 14.9913 138.502 15.2725 139.427 15.2725C140.894 15.2725 141.662 14.5113 141.662 13.558C141.662 12.303 140.524 12.015 139.537 11.7955C138.797 11.6172 138.153 11.4458 138.153 10.8903C138.153 10.3828 138.632 10.0331 139.407 10.0331C140.133 10.0331 140.757 10.3417 141.1 10.7531L141.511 10.1428C141.052 9.68331 140.373 9.31984 139.407 9.31984C138.057 9.31984 137.289 10.0742 137.289 10.952C137.289 12.1247 138.379 12.3853 139.345 12.6116C140.106 12.7968 140.805 13.0025 140.805 13.6197C140.805 14.1752 140.332 14.5593 139.468 14.5593C138.694 14.5593 137.974 14.1821 137.597 13.75L137.138 14.3878V14.381ZM143.409 8.50375C143.738 8.50375 144.012 8.23629 144.012 7.90712C144.012 7.57794 143.738 7.31734 143.409 7.31734C143.08 7.31734 142.82 7.57794 142.82 7.90712C142.82 8.23629 143.087 8.50375 143.409 8.50375ZM143.855 15.1353V9.457H142.971V15.1353H143.855ZM145.054 14.381C145.63 14.9913 146.418 15.2725 147.343 15.2725C148.81 15.2725 149.577 14.5113 149.577 13.558C149.577 12.303 148.44 12.015 147.453 11.7955C146.713 11.6172 146.068 11.4458 146.068 10.8903C146.068 10.3828 146.548 10.0331 147.323 10.0331C148.049 10.0331 148.673 10.3417 149.015 10.7531L149.427 10.1428C148.967 9.68331 148.289 9.31984 147.323 9.31984C145.972 9.31984 145.205 10.0742 145.205 10.952C145.205 12.1247 146.301 12.3853 147.261 12.6116C148.028 12.7968 148.721 13.0025 148.721 13.6197C148.721 14.1752 148.248 14.5593 147.384 14.5593C146.61 14.5593 145.89 14.1821 145.513 13.75L145.054 14.3878V14.381ZM150.557 12.2893C150.557 13.9832 151.695 15.2725 153.388 15.2725C154.423 15.2725 155.033 14.8473 155.464 14.2849L154.875 13.7432C154.498 14.2507 154.018 14.4838 153.429 14.4838C152.223 14.4838 151.469 13.5443 151.469 12.2824C151.469 11.0206 152.223 10.0948 153.429 10.0948C154.018 10.0948 154.498 10.3211 154.875 10.8354L155.464 10.2937C155.033 9.73131 154.416 9.30612 153.388 9.30612C151.695 9.30612 150.557 10.6023 150.557 12.2824V12.2893ZM161.31 15.1353V11.1235C161.31 9.88904 160.687 9.31298 159.501 9.31298C158.644 9.31298 157.87 9.80675 157.466 10.2799V7.29675H156.582V15.1353H157.466V10.9863C157.808 10.5268 158.466 10.1016 159.145 10.1016C159.906 10.1016 160.426 10.3965 160.426 11.3978V15.1353H161.31ZM162.64 12.2893C162.64 14.0655 163.853 15.2725 165.532 15.2725C166.464 15.2725 167.225 14.9639 167.787 14.4015L167.362 13.8255C166.917 14.285 166.259 14.5456 165.614 14.5456C164.395 14.5456 163.641 13.654 163.572 12.5842H168.164V12.3579C168.164 10.6503 167.157 9.31298 165.436 9.31298C163.819 9.31298 162.64 10.6434 162.64 12.2893ZM165.423 10.0468C166.718 10.0468 167.28 11.096 167.294 11.9396H163.572C163.62 11.0686 164.216 10.0468 165.429 10.0468H165.423Z" fill="#1D1D1B"/>
</svg>
